# Blender 3.5.0
# www.blender.org
mtllib kostka.mtl
o Cube
v -0.924798 -0.972808 0.859151
v -0.859151 -1.000000 0.859151
v -0.859151 -0.972808 0.924798
v -0.929004 -0.937203 0.929004
v -0.859151 -0.924798 0.972808
v -0.859151 -0.859151 1.000000
v -0.924798 -0.859151 0.972808
v -0.929004 -0.929004 0.937203
v -0.972808 -0.924798 0.859151
v -0.937203 -0.929004 0.929004
v -0.972808 -0.859151 0.924798
v -1.000000 -0.859151 0.859151
v -0.924798 0.859151 0.972808
v -0.859151 0.859151 1.000000
v -0.859151 0.924798 0.972808
v -0.929004 0.929004 0.937203
v -0.859151 0.972808 0.924798
v -0.859151 1.000000 0.859151
v -0.924798 0.972808 0.859151
v -0.929004 0.937203 0.929004
v -0.972808 0.859151 0.924798
v -0.937203 0.929004 0.929004
v -0.972808 0.924798 0.859151
v -1.000000 0.859151 0.859151
v -0.859151 -0.972808 -0.924798
v -0.859151 -1.000000 -0.859151
v -0.924798 -0.972808 -0.859151
v -0.929004 -0.937203 -0.929004
v -0.972808 -0.924798 -0.859151
v -1.000000 -0.859151 -0.859151
v -0.972808 -0.859151 -0.924798
v -0.937203 -0.929004 -0.929004
v -0.859151 -0.924798 -0.972808
v -0.929004 -0.929004 -0.937203
v -0.924798 -0.859151 -0.972808
v -0.859151 -0.859151 -1.000000
v -0.924798 0.972808 -0.859151
v -0.859151 1.000000 -0.859151
v -0.859151 0.972808 -0.924798
v -0.929004 0.937203 -0.929004
v -0.859151 0.924798 -0.972808
v -0.859151 0.859151 -1.000000
v -0.924798 0.859151 -0.972808
v -0.929004 0.929004 -0.937203
v -0.972808 0.924798 -0.859151
v -0.937203 0.929004 -0.929004
v -0.972808 0.859151 -0.924798
v -1.000000 0.859151 -0.859151
v 0.859151 -0.972808 0.924798
v 0.859151 -1.000000 0.859151
v 0.924798 -0.972808 0.859151
v 0.929004 -0.937203 0.929004
v 0.972808 -0.924798 0.859151
v 1.000000 -0.859151 0.859151
v 0.972808 -0.859151 0.924798
v 0.937203 -0.929004 0.929004
v 0.859151 -0.924798 0.972808
v 0.929004 -0.929004 0.937203
v 0.924798 -0.859151 0.972808
v 0.859151 -0.859151 1.000000
v 0.924798 0.972808 0.859151
v 0.859151 1.000000 0.859151
v 0.859151 0.972808 0.924798
v 0.929004 0.937203 0.929004
v 0.859151 0.924798 0.972808
v 0.859151 0.859151 1.000000
v 0.924798 0.859151 0.972808
v 0.929004 0.929004 0.937203
v 0.972808 0.924798 0.859151
v 0.937203 0.929004 0.929004
v 0.972808 0.859151 0.924798
v 1.000000 0.859151 0.859151
v 0.924798 -0.972808 -0.859151
v 0.859151 -1.000000 -0.859151
v 0.859151 -0.972808 -0.924798
v 0.929004 -0.937203 -0.929004
v 0.859151 -0.924798 -0.972808
v 0.859151 -0.859151 -1.000000
v 0.924798 -0.859151 -0.972808
v 0.929004 -0.929004 -0.937203
v 0.972808 -0.924798 -0.859151
v 0.937203 -0.929004 -0.929004
v 0.972808 -0.859151 -0.924798
v 1.000000 -0.859151 -0.859151
v 0.859151 0.972808 -0.924798
v 0.859151 1.000000 -0.859151
v 0.924798 0.972808 -0.859151
v 0.929004 0.937203 -0.929004
v 0.972808 0.924798 -0.859151
v 1.000000 0.859151 -0.859151
v 0.972808 0.859151 -0.924798
v 0.937203 0.929004 -0.929004
v 0.859151 0.924798 -0.972808
v 0.929004 0.929004 -0.937203
v 0.924798 0.859151 -0.972808
v 0.859151 0.859151 -1.000000
vn -1.0000 -0.0000 -0.0000
vn 0.7071 0.7071 -0.0000
vn -0.0000 -0.7071 -0.7071
vn -0.5774 0.5774 0.5774
vn -0.5774 0.5774 -0.5774
vn -0.0000 -1.0000 -0.0000
vn -0.0000 0.7071 0.7071
vn -0.7071 -0.0000 -0.7071
vn -0.0000 0.7071 -0.7071
vn 0.7071 -0.7071 -0.0000
vn 0.5774 -0.5774 -0.5774
vn 0.7071 -0.0000 -0.7071
vn -0.5774 -0.5774 0.5774
vn -0.0000 -0.0000 1.0000
vn -0.0000 1.0000 -0.0000
vn -0.0000 -0.0000 -1.0000
vn -0.5774 -0.5774 -0.5774
vn 0.5774 -0.5774 0.5774
vn 0.5774 0.5774 -0.5774
vn 0.7071 -0.0000 0.7071
vn 0.5774 0.5774 0.5774
vn 1.0000 -0.0000 -0.0000
vn -0.7071 -0.0000 0.7071
vn -0.7071 0.7071 -0.0000
vn -0.0000 -0.7071 0.7071
vn -0.3976 -0.8270 0.3976
vn -0.3976 -0.3976 0.8270
vn -0.8629 -0.3574 0.3574
vn -0.3976 0.3976 0.8270
vn -0.3976 0.8270 0.3976
vn -0.8629 0.3574 0.3574
vn -0.3976 -0.8270 -0.3976
vn -0.8270 -0.3976 -0.3976
vn -0.3574 -0.3574 -0.8629
vn -0.3976 0.8270 -0.3976
vn -0.3976 0.3976 -0.8270
vn -0.8629 0.3574 -0.3574
vn 0.3976 -0.8270 0.3976
vn 0.8270 -0.3976 0.3976
vn 0.3574 -0.3574 0.8629
vn 0.3976 0.8270 0.3976
vn 0.3976 0.3976 0.8270
vn 0.8629 0.3574 0.3574
vn 0.3976 -0.8270 -0.3976
vn 0.3976 -0.3976 -0.8270
vn 0.8629 -0.3574 -0.3574
vn 0.3976 0.8270 -0.3976
vn 0.8270 0.3976 -0.3976
vn 0.3574 0.3574 -0.8629
vn -0.6739 -0.6739 0.3029
vn -0.3029 -0.6739 0.6739
vn -0.6739 -0.3029 0.6739
vn -0.6739 0.3029 0.6739
vn -0.3029 0.6739 0.6739
vn -0.6739 0.6739 0.3029
vn -0.3029 -0.6739 -0.6739
vn -0.6739 -0.6739 -0.3029
vn -0.6739 -0.3029 -0.6739
vn -0.6739 0.6739 -0.3029
vn -0.3029 0.6739 -0.6739
vn -0.6739 0.3029 -0.6739
vn 0.3029 -0.6739 0.6739
vn 0.6739 -0.6739 0.3029
vn 0.6739 -0.3029 0.6739
vn 0.6739 0.6739 0.3029
vn 0.3029 0.6739 0.6739
vn 0.6739 0.3029 0.6739
vn 0.6739 -0.6739 -0.3029
vn 0.3029 -0.6739 -0.6739
vn 0.6739 -0.3029 -0.6739
vn 0.3029 0.6739 -0.6739
vn 0.6739 0.6739 -0.3029
vn 0.6739 0.3029 -0.6739
vn -0.3827 -0.9239 -0.0000
vn -0.9239 -0.3827 -0.0000
vn -0.3827 -0.0000 0.9239
vn -0.9239 -0.0000 0.3827
vn -0.3827 0.9239 -0.0000
vn -0.9239 0.3827 -0.0000
vn -0.3827 -0.0000 -0.9239
vn -0.9239 -0.0000 -0.3827
vn -0.0000 -0.9239 -0.3827
vn -0.0000 -0.3827 -0.9239
vn -0.0000 0.9239 -0.3827
vn -0.0000 0.3827 -0.9239
vn 0.9239 -0.0000 -0.3827
vn 0.3827 -0.0000 -0.9239
vn 0.3827 -0.9239 -0.0000
vn 0.9239 -0.3827 -0.0000
vn 0.3827 0.9239 -0.0000
vn 0.9239 0.3827 -0.0000
vn 0.3827 -0.0000 0.9239
vn 0.9239 -0.0000 0.3827
vn -0.0000 -0.9239 0.3827
vn -0.0000 -0.3827 0.9239
vn -0.0000 0.9239 0.3827
vn -0.0000 0.3827 0.9239
vn -0.7071 -0.7071 -0.0000
vn -0.3574 -0.8629 0.3574
vn -0.3574 -0.3574 0.8629
vn -0.8270 -0.3976 0.3976
vn -0.3574 0.3574 0.8629
vn -0.3574 0.8629 0.3574
vn -0.8270 0.3976 0.3976
vn -0.3574 -0.8629 -0.3574
vn -0.8629 -0.3574 -0.3574
vn -0.3976 -0.3976 -0.8270
vn -0.3574 0.8629 -0.3574
vn -0.3574 0.3574 -0.8629
vn -0.8270 0.3976 -0.3976
vn 0.3574 -0.8629 0.3574
vn 0.8629 -0.3574 0.3574
vn 0.3976 -0.3976 0.8270
vn 0.3574 0.8629 0.3574
vn 0.3574 0.3574 0.8629
vn 0.8270 0.3976 0.3976
vn 0.3574 -0.8629 -0.3574
vn 0.3574 -0.3574 -0.8629
vn 0.8270 -0.3976 -0.3976
vn 0.3574 0.8629 -0.3574
vn 0.8629 0.3574 -0.3574
vn 0.3976 0.3976 -0.8270
vt 0.735909 0.254524
vt 0.727557 0.254524
vt 0.727557 0.246173
vt 0.736444 0.245638
vt 0.732450 0.240065
vt 0.727557 0.240065
vt 0.473122 0.999911
vt 0.473122 0.000089
vt 0.732450 0.236606
vt 0.727557 0.236606
vt 0.735909 0.240065
vt 0.473122 0.996452
vt 0.736444 0.244595
vt 0.742017 0.249632
vt 0.742017 0.254524
vt 0.737487 0.245638
vt 0.742017 0.246173
vt 0.473122 0.990344
vt 0.745476 0.249632
vt 0.745476 0.254524
vt 0.473122 0.981993
vt 0.254524 0.996452
vt 0.254524 0.000089
vt 0.254524 0.999911
vt 0.249632 0.999911
vt 0.246172 0.996452
vt 0.246173 0.000089
vt 0.249632 0.993920
vt 0.245637 0.991922
vt 0.240065 0.990344
vt 0.240065 0.000089
vt 0.236605 0.981993
vt 0.000089 0.254524
vt 0.236605 0.986885
vt 0.236605 0.000089
vt 0.240065 0.986885
vt 0.240065 0.981993
vt 0.244594 0.990879
vt 0.254524 0.990344
vt 0.245637 0.990879
vt 0.246173 0.981993
vt 0.254524 0.981993
vt 0.727557 0.481474
vt 0.727557 0.473122
vt 0.735909 0.473122
vt 0.736444 0.482009
vt 0.742017 0.473122
vt 0.473122 0.763395
vt 0.745476 0.473122
vt 0.742017 0.481474
vt 0.745476 0.478014
vt 0.473122 0.751584
vt 0.739484 0.478014
vt 0.737487 0.482009
vt 0.732450 0.487582
vt 0.727557 0.487582
vt 0.736444 0.483052
vt 0.735909 0.487582
vt 0.473122 0.739368
vt 0.732450 0.491041
vt 0.727557 0.491041
vt 0.473122 0.727557
vt 0.240065 0.763395
vt 0.236605 0.727557
vt 0.000089 0.473122
vt 0.236605 0.763395
vt 0.240065 0.755043
vt 0.236605 0.758502
vt 0.240065 0.727557
vt 0.242597 0.758502
vt 0.244594 0.754508
vt 0.249632 0.732450
vt 0.246172 0.748935
vt 0.246173 0.727557
vt 0.254524 0.732450
vt 0.254524 0.727557
vt 0.254524 0.739368
vt 0.245637 0.753465
vt 0.249632 0.744433
vt 0.745653 0.015298
vt 0.246172 0.763394
vt 0.245637 0.754508
vt 0.750546 0.015298
vt 0.249632 0.746519
vt 0.750546 0.020190
vt 0.254524 0.751584
vt 0.745653 0.020190
vt 0.254524 0.763394
vt 0.745654 0.020368
vt 0.508959 0.246173
vt 0.750546 0.020368
vt 0.508959 0.254524
vt 0.500608 0.249632
vt 0.750546 0.025260
vt 0.497149 0.254524
vt 0.745654 0.025260
vt 0.500073 0.245638
vt 0.494500 0.249632
vt 0.484933 0.254524
vt 0.491041 0.249632
vt 0.473122 0.254524
vt 0.494500 0.246173
vt 0.473122 0.242713
vt 0.499030 0.245638
vt 0.508959 0.240065
vt 0.504067 0.242597
vt 0.500073 0.244594
vt 0.504067 0.236606
vt 0.500608 0.240065
vt 0.473122 0.230498
vt 0.508959 0.236606
vt 0.473122 0.218687
vt 0.236605 0.223579
vt 0.240065 0.227039
vt 0.230498 0.254524
vt 0.236605 0.218687
vt 0.218687 0.254524
vt 0.240065 0.218687
vt 0.242597 0.223579
vt 0.244594 0.227574
vt 0.745654 0.000089
vt 0.246173 0.218687
vt 0.750546 0.000089
vt 0.254524 0.218687
vt 0.750546 0.004981
vt 0.254524 0.230498
vt 0.745654 0.004981
vt 0.245637 0.227574
vt 0.249632 0.235563
vt 0.249632 0.249632
vt 0.246173 0.233146
vt 0.242713 0.254524
vt 0.245637 0.228617
vt 0.249632 0.237649
vt 0.254524 0.242713
vt 0.254524 0.249632
vt 0.254524 0.254524
vt 0.745654 0.005159
vt 0.497149 0.473122
vt 0.750546 0.005159
vt 0.508959 0.473122
vt 0.750546 0.010051
vt 0.508959 0.481474
vt 0.745654 0.010051
vt 0.492084 0.478014
vt 0.500073 0.482009
vt 0.508959 0.487582
vt 0.473122 0.508959
vt 0.508959 0.491041
vt 0.500608 0.487581
vt 0.504067 0.491041
vt 0.473122 0.497149
vt 0.504067 0.485049
vt 0.500073 0.483052
vt 0.484933 0.473122
vt 0.489998 0.478014
vt 0.499030 0.482009
vt 0.478014 0.478014
vt 0.494500 0.481474
vt 0.473122 0.484933
vt 0.478014 0.473122
vt 0.473122 0.473122
vt 0.240065 0.508959
vt 0.218687 0.473122
vt 0.236605 0.508959
vt 0.236605 0.504067
vt 0.230498 0.473122
vt 0.242597 0.504067
vt 0.244594 0.500073
vt 0.235562 0.478014
vt 0.249632 0.478014
vt 0.242713 0.473122
vt 0.254524 0.478014
vt 0.254524 0.473122
vt 0.254524 0.484933
vt 0.245637 0.499030
vt 0.237649 0.478014
vt 0.249632 0.489998
vt 0.745653 0.010228
vt 0.246173 0.508959
vt 0.245637 0.500073
vt 0.750546 0.010228
vt 0.249632 0.492084
vt 0.750546 0.015120
vt 0.254524 0.497149
vt 0.745653 0.015121
vt 0.254524 0.508959
s 0
f 24/42/1 30/48/1 12/21/1
f 61/115/2 89/172/2 87/167/2
f 25/43/3 77/147/3 75/143/3
f 16/29/4 20/38/4 22/40/4
f 40/71/5 44/78/5 46/82/5
f 74/141/6 2/2/6 26/44/6
f 17/31/7 65/122/7 63/118/7
f 35/59/8 47/86/8 43/77/8
f 85/163/9 41/74/9 39/69/9
f 73/139/10 53/99/10 51/95/10
f 76/146/11 80/154/11 82/157/11
f 83/160/12 95/185/12 91/175/12
f 4/4/13 8/13/13 10/16/13
f 66/124/14 6/8/14 60/112/14
f 38/65/15 62/117/15 86/164/15
f 42/76/16 78/148/16 36/62/16
f 28/46/17 32/54/17 34/57/17
f 52/97/18 56/104/18 58/107/18
f 88/169/19 92/176/19 94/181/19
f 59/110/20 71/135/20 67/126/20
f 64/120/21 68/128/21 70/133/21
f 90/174/22 54/101/22 84/162/22
f 13/22/23 11/18/23 7/12/23
f 37/63/24 23/41/24 19/37/24
f 49/90/25 5/6/25 3/3/25
f 1/1/26 3/3/26 4/4/26
f 5/5/27 7/11/27 8/13/27
f 9/14/28 11/17/28 12/19/28
f 13/22/29 15/25/29 16/28/29
f 17/30/30 19/36/30 20/38/30
f 21/39/31 23/41/31 24/42/31
f 25/43/32 27/45/32 28/46/32
f 29/47/33 31/51/33 32/53/33
f 33/55/34 35/58/34 36/60/34
f 37/63/35 39/68/35 40/70/35
f 41/72/36 43/77/36 44/79/36
f 45/80/37 47/85/37 48/87/37
f 49/89/38 51/94/38 52/96/38
f 53/98/39 55/102/39 56/104/39
f 57/105/40 59/108/40 60/111/40
f 61/113/41 63/118/41 64/119/41
f 65/121/42 67/125/42 68/127/42
f 69/130/43 71/135/43 72/136/43
f 73/138/44 75/142/44 76/144/44
f 77/147/45 79/151/45 80/153/45
f 81/155/46 83/158/46 84/161/46
f 85/163/47 87/166/47 88/168/47
f 89/171/48 91/175/48 92/178/48
f 93/179/49 95/184/49 96/186/49
f 9/15/50 4/4/50 10/16/50
f 5/6/51 4/4/51 3/3/51
f 11/17/52 8/13/52 7/11/52
f 13/22/53 22/40/53 21/39/53
f 15/26/54 20/38/54 16/29/54
f 23/41/55 20/38/55 19/37/55
f 33/56/56 28/46/56 34/57/56
f 29/47/57 28/46/57 27/45/57
f 35/58/58 32/54/58 31/50/58
f 45/81/59 40/71/59 46/82/59
f 41/73/60 40/71/60 39/67/60
f 47/86/61 44/79/61 43/77/61
f 57/105/62 52/97/62 58/107/62
f 53/98/63 52/97/63 51/93/63
f 59/109/64 56/104/64 55/102/64
f 69/131/65 64/120/65 70/133/65
f 65/122/66 64/120/66 63/118/66
f 71/135/67 68/129/67 67/126/67
f 81/155/68 76/145/68 82/156/68
f 77/147/69 76/146/69 75/143/69
f 83/159/70 80/154/70 79/150/70
f 93/180/71 88/169/71 94/181/71
f 89/172/72 88/170/72 87/167/72
f 95/185/73 92/178/73 91/175/73
f 2/2/74 27/45/74 26/44/74
f 30/49/75 9/15/75 12/20/75
f 14/24/76 7/12/76 6/7/76
f 12/21/77 21/39/77 24/42/77
f 38/66/78 19/37/78 18/32/78
f 24/42/79 45/81/79 48/88/79
f 36/62/80 43/77/80 42/76/80
f 48/88/81 31/52/81 30/48/81
f 26/44/82 75/143/82 74/141/82
f 78/149/83 33/56/83 36/61/83
f 86/165/84 39/69/84 38/64/84
f 42/76/85 93/180/85 96/187/85
f 84/162/86 91/175/86 90/174/86
f 96/187/87 79/152/87 78/148/87
f 74/141/88 51/95/88 50/92/88
f 54/101/89 81/155/89 84/162/89
f 62/117/90 87/167/90 86/164/90
f 90/174/91 69/132/91 72/137/91
f 60/112/92 67/126/92 66/124/92
f 72/137/93 55/103/93 54/101/93
f 50/92/94 3/3/94 2/2/94
f 6/10/95 57/105/95 60/111/95
f 18/35/96 63/118/96 62/116/96
f 66/124/97 15/27/97 14/23/97
f 1/1/98 29/47/98 27/45/98
f 24/42/1 48/88/1 30/48/1
f 61/115/2 69/132/2 89/172/2
f 25/43/3 33/56/3 77/147/3
f 74/141/6 50/92/6 2/2/6
f 17/31/7 15/27/7 65/122/7
f 35/59/8 31/52/8 47/86/8
f 85/163/9 93/180/9 41/74/9
f 73/139/10 81/155/10 53/99/10
f 83/160/12 79/152/12 95/185/12
f 66/124/14 14/23/14 6/8/14
f 38/65/15 18/33/15 62/117/15
f 42/76/16 96/187/16 78/148/16
f 59/110/20 55/103/20 71/135/20
f 90/174/22 72/137/22 54/101/22
f 13/22/23 21/39/23 11/18/23
f 37/63/24 45/81/24 23/41/24
f 49/90/25 57/105/25 5/6/25
f 1/1/99 2/2/99 3/3/99
f 5/5/100 6/9/100 7/11/100
f 9/14/101 10/16/101 11/17/101
f 13/22/102 14/24/102 15/25/102
f 17/30/103 18/34/103 19/36/103
f 21/39/104 22/40/104 23/41/104
f 25/43/105 26/44/105 27/45/105
f 29/47/106 30/49/106 31/51/106
f 33/55/107 34/57/107 35/58/107
f 37/63/108 38/66/108 39/68/108
f 41/72/109 42/75/109 43/77/109
f 45/80/110 46/83/110 47/85/110
f 49/89/111 50/91/111 51/94/111
f 53/98/112 54/100/112 55/102/112
f 57/105/113 58/106/113 59/108/113
f 61/113/114 62/116/114 63/118/114
f 65/121/115 66/123/115 67/125/115
f 69/130/116 70/134/116 71/135/116
f 73/138/117 74/140/117 75/142/117
f 77/147/118 78/149/118 79/151/118
f 81/155/119 82/156/119 83/158/119
f 85/163/120 86/165/120 87/166/120
f 89/171/121 90/173/121 91/175/121
f 93/179/122 94/182/122 95/184/122
f 9/15/50 1/1/50 4/4/50
f 5/6/51 8/13/51 4/4/51
f 11/17/52 10/16/52 8/13/52
f 13/22/53 16/29/53 22/40/53
f 15/26/54 17/30/54 20/38/54
f 23/41/55 22/40/55 20/38/55
f 33/56/56 25/43/56 28/46/56
f 29/47/57 32/54/57 28/46/57
f 35/58/58 34/57/58 32/54/58
f 45/81/59 37/63/59 40/71/59
f 41/73/60 44/78/60 40/71/60
f 47/86/61 46/84/61 44/79/61
f 57/105/62 49/90/62 52/97/62
f 53/98/63 56/104/63 52/97/63
f 59/109/64 58/107/64 56/104/64
f 69/131/65 61/114/65 64/120/65
f 65/122/66 68/128/66 64/120/66
f 71/135/67 70/134/67 68/129/67
f 81/155/68 73/139/68 76/145/68
f 77/147/69 80/154/69 76/146/69
f 83/159/70 82/157/70 80/154/70
f 93/180/71 85/163/71 88/169/71
f 89/172/72 92/177/72 88/170/72
f 95/185/73 94/183/73 92/178/73
f 2/2/74 1/1/74 27/45/74
f 30/49/75 29/47/75 9/15/75
f 14/24/76 13/22/76 7/12/76
f 12/21/77 11/18/77 21/39/77
f 38/66/78 37/63/78 19/37/78
f 24/42/79 23/41/79 45/81/79
f 36/62/80 35/59/80 43/77/80
f 48/88/81 47/86/81 31/52/81
f 26/44/82 25/43/82 75/143/82
f 78/149/83 77/147/83 33/56/83
f 86/165/84 85/163/84 39/69/84
f 42/76/85 41/74/85 93/180/85
f 84/162/86 83/160/86 91/175/86
f 96/187/87 95/185/87 79/152/87
f 74/141/88 73/139/88 51/95/88
f 54/101/89 53/99/89 81/155/89
f 62/117/90 61/115/90 87/167/90
f 90/174/91 89/172/91 69/132/91
f 60/112/92 59/110/92 67/126/92
f 72/137/93 71/135/93 55/103/93
f 50/92/94 49/90/94 3/3/94
f 6/10/95 5/6/95 57/105/95
f 18/35/96 17/31/96 63/118/96
f 66/124/97 65/122/97 15/27/97
f 1/1/98 9/15/98 29/47/98
